<svg width="240" height="57" viewBox="0 0 240 57" fill="none" xmlns="http://www.w3.org/2000/svg">
<g filter="url(#filter0_d_307_169)">
<path d="M10.2501 31.474C10.2501 29.2953 10.6934 27.3953 11.5801 25.774C12.4668 24.1273 13.6954 22.8607 15.2661 21.974C16.8368 21.062 18.6354 20.606 20.6621 20.606C23.2714 20.606 25.4248 21.2647 27.1221 22.582C28.8448 23.874 29.9974 25.698 30.5801 28.054H24.8421C24.5381 27.142 24.0188 26.4327 23.2841 25.926C22.5748 25.394 21.6881 25.128 20.6241 25.128C19.1041 25.128 17.9008 25.6853 17.0141 26.8C16.1274 27.8893 15.6841 29.4473 15.6841 31.474C15.6841 33.4753 16.1274 35.0333 17.0141 36.148C17.9008 37.2373 19.1041 37.782 20.6241 37.782C22.7774 37.782 24.1834 36.8193 24.8421 34.894H30.5801C29.9974 37.174 28.8448 38.9853 27.1221 40.328C25.3994 41.6707 23.2461 42.342 20.6621 42.342C18.6354 42.342 16.8368 41.8987 15.2661 41.012C13.6954 40.1 12.4668 38.8333 11.5801 37.212C10.6934 35.5653 10.2501 33.6527 10.2501 31.474ZM39.7975 24.216C40.4815 23.1013 41.3681 22.2273 42.4575 21.594C43.5721 20.9607 44.8388 20.644 46.2575 20.644V26.23H44.8515C43.1795 26.23 41.9128 26.6227 41.0515 27.408C40.2155 28.1933 39.7975 29.5613 39.7975 31.512V42H34.4775V20.948H39.7975V24.216ZM69.4108 31.018C69.4108 31.778 69.3601 32.462 69.2588 33.07H53.8688C53.9954 34.59 54.5274 35.7807 55.4648 36.642C56.4021 37.5033 57.5548 37.934 58.9228 37.934C60.8988 37.934 62.3048 37.0853 63.1408 35.388H68.8788C68.2708 37.4147 67.1054 39.0867 65.3828 40.404C63.6601 41.696 61.5448 42.342 59.0368 42.342C57.0101 42.342 55.1861 41.8987 53.5648 41.012C51.9688 40.1 50.7148 38.8207 49.8028 37.174C48.9161 35.5273 48.4727 33.6273 48.4727 31.474C48.4727 29.2953 48.9161 27.3827 49.8028 25.736C50.6894 24.0893 51.9308 22.8227 53.5268 21.936C55.1228 21.0493 56.9594 20.606 59.0368 20.606C61.0381 20.606 62.8241 21.0367 64.3948 21.898C65.9908 22.7593 67.2194 23.988 68.0808 25.584C68.9674 27.1547 69.4108 28.966 69.4108 31.018ZM63.9008 29.498C63.8754 28.13 63.3814 27.0407 62.4188 26.23C61.4561 25.394 60.2781 24.976 58.8848 24.976C57.5674 24.976 56.4528 25.3813 55.5408 26.192C54.6541 26.9773 54.1094 28.0793 53.9068 29.498H63.9008ZM71.9259 31.398C71.9259 29.27 72.3439 27.3827 73.1799 25.736C74.0412 24.0893 75.1939 22.8227 76.6379 21.936C78.1072 21.0493 79.7412 20.606 81.5399 20.606C83.1105 20.606 84.4785 20.9227 85.6439 21.556C86.8345 22.1893 87.7845 22.9873 88.4939 23.95V20.948H93.8519V42H88.4939V38.922C87.8099 39.91 86.8599 40.7333 85.6439 41.392C84.4532 42.0253 83.0725 42.342 81.5019 42.342C79.7285 42.342 78.1072 41.886 76.6379 40.974C75.1939 40.062 74.0412 38.7827 73.1799 37.136C72.3439 35.464 71.9259 33.5513 71.9259 31.398ZM88.4939 31.474C88.4939 30.182 88.2405 29.08 87.7339 28.168C87.2272 27.2307 86.5432 26.5213 85.6819 26.04C84.8205 25.5333 83.8959 25.28 82.9079 25.28C81.9199 25.28 81.0079 25.5207 80.1719 26.002C79.3359 26.4833 78.6519 27.1927 78.1199 28.13C77.6132 29.042 77.3599 30.1313 77.3599 31.398C77.3599 32.6647 77.6132 33.7793 78.1199 34.742C78.6519 35.6793 79.3359 36.4013 80.1719 36.908C81.0332 37.4147 81.9452 37.668 82.9079 37.668C83.8959 37.668 84.8205 37.4273 85.6819 36.946C86.5432 36.4393 87.2272 35.73 87.7339 34.818C88.2405 33.8807 88.4939 32.766 88.4939 31.474ZM105.242 25.318V35.502C105.242 36.2113 105.406 36.7307 105.736 37.06C106.09 37.364 106.673 37.516 107.484 37.516H109.954V42H106.61C102.126 42 99.8838 39.8213 99.8838 35.464V25.318H97.3758V20.948H99.8838V15.742H105.242V20.948H109.954V25.318H105.242ZM116.478 18.44C115.541 18.44 114.756 18.1487 114.122 17.566C113.514 16.958 113.21 16.2107 113.21 15.324C113.21 14.4373 113.514 13.7027 114.122 13.12C114.756 12.512 115.541 12.208 116.478 12.208C117.416 12.208 118.188 12.512 118.796 13.12C119.43 13.7027 119.746 14.4373 119.746 15.324C119.746 16.2107 119.43 16.958 118.796 17.566C118.188 18.1487 117.416 18.44 116.478 18.44ZM119.1 20.948V42H113.78V20.948H119.1ZM129.676 13.88V42H124.356V13.88H129.676ZM154.503 31.018C154.503 31.778 154.452 32.462 154.351 33.07H138.961C139.087 34.59 139.619 35.7807 140.557 36.642C141.494 37.5033 142.647 37.934 144.015 37.934C145.991 37.934 147.397 37.0853 148.233 35.388H153.971C153.363 37.4147 152.197 39.0867 150.475 40.404C148.752 41.696 146.637 42.342 144.129 42.342C142.102 42.342 140.278 41.8987 138.657 41.012C137.061 40.1 135.807 38.8207 134.895 37.174C134.008 35.5273 133.565 33.6273 133.565 31.474C133.565 29.2953 134.008 27.3827 134.895 25.736C135.781 24.0893 137.023 22.8227 138.619 21.936C140.215 21.0493 142.051 20.606 144.129 20.606C146.13 20.606 147.916 21.0367 149.487 21.898C151.083 22.7593 152.311 23.988 153.173 25.584C154.059 27.1547 154.503 28.966 154.503 31.018ZM148.993 29.498C148.967 28.13 148.473 27.0407 147.511 26.23C146.548 25.394 145.37 24.976 143.977 24.976C142.659 24.976 141.545 25.3813 140.633 26.192C139.746 26.9773 139.201 28.0793 138.999 29.498H148.993ZM157.018 31.398C157.018 29.27 157.436 27.3827 158.272 25.736C159.133 24.0893 160.286 22.8227 161.73 21.936C163.199 21.0493 164.833 20.606 166.632 20.606C168.202 20.606 169.57 20.9227 170.736 21.556C171.926 22.1893 172.876 22.9873 173.586 23.95V20.948H178.944V42H173.586V38.922C172.902 39.91 171.952 40.7333 170.736 41.392C169.545 42.0253 168.164 42.342 166.594 42.342C164.82 42.342 163.199 41.886 161.73 40.974C160.286 40.062 159.133 38.7827 158.272 37.136C157.436 35.464 157.018 33.5513 157.018 31.398ZM173.586 31.474C173.586 30.182 173.332 29.08 172.826 28.168C172.319 27.2307 171.635 26.5213 170.774 26.04C169.912 25.5333 168.988 25.28 168 25.28C167.012 25.28 166.1 25.5207 165.264 26.002C164.428 26.4833 163.744 27.1927 163.212 28.13C162.705 29.042 162.452 30.1313 162.452 31.398C162.452 32.6647 162.705 33.7793 163.212 34.742C163.744 35.6793 164.428 36.4013 165.264 36.908C166.125 37.4147 167.037 37.668 168 37.668C168.988 37.668 169.912 37.4273 170.774 36.946C171.635 36.4393 172.319 35.73 172.826 34.818C173.332 33.8807 173.586 32.766 173.586 31.474ZM189.46 24.216C190.144 23.1013 191.03 22.2273 192.12 21.594C193.234 20.9607 194.501 20.644 195.92 20.644V26.23H194.514C192.842 26.23 191.575 26.6227 190.714 27.408C189.878 28.1933 189.46 29.5613 189.46 31.512V42H184.14V20.948H189.46V24.216ZM211.169 20.644C213.677 20.644 215.704 21.442 217.249 23.038C218.794 24.6087 219.567 26.8127 219.567 29.65V42H214.247V30.372C214.247 28.7 213.829 27.4207 212.993 26.534C212.157 25.622 211.017 25.166 209.573 25.166C208.104 25.166 206.938 25.622 206.077 26.534C205.241 27.4207 204.823 28.7 204.823 30.372V42H199.503V20.948H204.823V23.57C205.532 22.658 206.432 21.9487 207.521 21.442C208.636 20.91 209.852 20.644 211.169 20.644Z" fill="#F29E08"/>
</g>
<g filter="url(#filter1_d_307_169)">
<rect x="214" y="5" width="3.8" height="13" rx="1.9" fill="#FECB56"/>
</g>
<g filter="url(#filter2_d_307_169)">
<rect x="224.4" y="26.4" width="3.8" height="13" rx="1.9" transform="rotate(-90 224.4 26.4)" fill="#FECB56" fill-opacity="0.65" shape-rendering="crispEdges"/>
</g>
<g filter="url(#filter3_d_307_169)">
<path d="M229.996 9.39863C230.79 8.6306 232.067 8.64115 232.848 9.4222C233.629 10.2032 233.619 11.459 232.825 12.2271L224.266 20.5072C223.472 21.2752 222.196 21.2647 221.415 20.4836C220.634 19.7026 220.644 18.4468 221.438 17.6788L229.996 9.39863Z" fill="#FECB56" fill-opacity="0.85" shape-rendering="crispEdges"/>
</g>
<defs>
<filter id="filter0_d_307_169" x="10.25" y="11.208" width="211.317" height="32.134" filterUnits="userSpaceOnUse" color-interpolation-filters="sRGB">
<feFlood flood-opacity="0" result="BackgroundImageFix"/>
<feColorMatrix in="SourceAlpha" type="matrix" values="0 0 0 0 0 0 0 0 0 0 0 0 0 0 0 0 0 0 127 0" result="hardAlpha"/>
<feOffset dx="1"/>
<feGaussianBlur stdDeviation="0.5"/>
<feComposite in2="hardAlpha" operator="out"/>
<feColorMatrix type="matrix" values="0 0 0 0 0 0 0 0 0 0 0 0 0 0 0 0 0 0 0.06 0"/>
<feBlend mode="normal" in2="BackgroundImageFix" result="effect1_dropShadow_307_169"/>
<feBlend mode="normal" in="SourceGraphic" in2="effect1_dropShadow_307_169" result="shape"/>
</filter>
<filter id="filter1_d_307_169" x="214" y="4" width="5.80005" height="15" filterUnits="userSpaceOnUse" color-interpolation-filters="sRGB">
<feFlood flood-opacity="0" result="BackgroundImageFix"/>
<feColorMatrix in="SourceAlpha" type="matrix" values="0 0 0 0 0 0 0 0 0 0 0 0 0 0 0 0 0 0 127 0" result="hardAlpha"/>
<feOffset dx="1"/>
<feGaussianBlur stdDeviation="0.5"/>
<feComposite in2="hardAlpha" operator="out"/>
<feColorMatrix type="matrix" values="0 0 0 0 0 0 0 0 0 0 0 0 0 0 0 0 0 0 0.05 0"/>
<feBlend mode="normal" in2="BackgroundImageFix" result="effect1_dropShadow_307_169"/>
<feBlend mode="normal" in="SourceGraphic" in2="effect1_dropShadow_307_169" result="shape"/>
</filter>
<filter id="filter2_d_307_169" x="224.4" y="21.6" width="15" height="5.79999" filterUnits="userSpaceOnUse" color-interpolation-filters="sRGB">
<feFlood flood-opacity="0" result="BackgroundImageFix"/>
<feColorMatrix in="SourceAlpha" type="matrix" values="0 0 0 0 0 0 0 0 0 0 0 0 0 0 0 0 0 0 127 0" result="hardAlpha"/>
<feOffset dx="1"/>
<feGaussianBlur stdDeviation="0.5"/>
<feComposite in2="hardAlpha" operator="out"/>
<feColorMatrix type="matrix" values="0 0 0 0 0 0 0 0 0 0 0 0 0 0 0 0 0 0 0.05 0"/>
<feBlend mode="normal" in2="BackgroundImageFix" result="effect1_dropShadow_307_169"/>
<feBlend mode="normal" in="SourceGraphic" in2="effect1_dropShadow_307_169" result="shape"/>
</filter>
<filter id="filter3_d_307_169" x="220.835" y="7.82941" width="14.5916" height="14.247" filterUnits="userSpaceOnUse" color-interpolation-filters="sRGB">
<feFlood flood-opacity="0" result="BackgroundImageFix"/>
<feColorMatrix in="SourceAlpha" type="matrix" values="0 0 0 0 0 0 0 0 0 0 0 0 0 0 0 0 0 0 127 0" result="hardAlpha"/>
<feOffset dx="1"/>
<feGaussianBlur stdDeviation="0.5"/>
<feComposite in2="hardAlpha" operator="out"/>
<feColorMatrix type="matrix" values="0 0 0 0 0 0 0 0 0 0 0 0 0 0 0 0 0 0 0.05 0"/>
<feBlend mode="normal" in2="BackgroundImageFix" result="effect1_dropShadow_307_169"/>
<feBlend mode="normal" in="SourceGraphic" in2="effect1_dropShadow_307_169" result="shape"/>
</filter>
</defs>
</svg>
